# xmcd
#
# Track frame offsets:
#	150
#	23193
#	39560
#	58179
#	77046
#	95917
#	115492
#	131463
#	149934
#	170811
#
# Disc length: 2489 seconds
#
# Revision: 0
# Processed by: cddbd v1.5.2PL0 Copyright (c) Steve Scherf et al.
# Submitted via: EasyCDDAExtractor 12.0.1.1
#
DISCID=9a09b70a
DTITLE=Minar Rahman - Danpitey
DYEAR=2009
DGENRE=Bangla Band
TTITLE0=Shada
TTITLE1=Dur
TTITLE2=Jani
TTITLE3=Danpitey
TTITLE4=Bondhu
TTITLE5=Krodh
TTITLE6=Prodip Jalo
TTITLE7=Shopnogulo
TTITLE8=Mone Rekho
TTITLE9=Dushopner Jatri
EXTD=
EXTT0=
EXTT1=
EXTT2=
EXTT3=
EXTT4=
EXTT5=
EXTT6=
EXTT7=
EXTT8=
EXTT9=
PLAYORDER=
